<?xml version="1.0" encoding="utf-8"?>
<!-- Generator: Adobe Illustrator 17.1.0, SVG Export Plug-In . SVG Version: 6.00 Build 0)  -->
<!DOCTYPE svg PUBLIC "-//W3C//DTD SVG 1.1//EN" "http://www.w3.org/Graphics/SVG/1.1/DTD/svg11.dtd">
<svg version="1.1" id="Layer_1" xmlns="http://www.w3.org/2000/svg" xmlns:xlink="http://www.w3.org/1999/xlink" x="0px" y="0px"
	 viewBox="0 0 408.8 105.3" enable-background="new 0 0 408.8 105.3" xml:space="preserve">
<g>
	<path fill-rule="evenodd" clip-rule="evenodd" fill="#40308E" d="M51.9,41.2l3.4,11.4l-6.6,22l9.5-5.5l5-16.5l-1.8-5.9l10.3,5.9
		L71,53.1l-3.2,10.6l19-11C68.1,41.9,49.4,31.1,30.7,20.3l9.7,32.4L30.7,85l9.6-5.5l8.1-26.9l-4.9-16.3L51.9,41.2z"/>
	<path fill-rule="evenodd" clip-rule="evenodd" fill="#40308E" d="M52.7,0c29.1,0,52.7,23.6,52.7,52.7c0,29.1-23.6,52.7-52.7,52.7
		C23.6,105.3,0,81.7,0,52.7C0,23.6,23.6,0,52.7,0L52.7,0z M52.7,8.6c-24.3,0-44,19.7-44,44c0,24.3,19.7,44,44,44
		c24.3,0,44-19.7,44-44C96.7,28.3,77,8.6,52.7,8.6z"/>
</g>
<g>
	<path d="M138.1,56.6v19.5h-7.6V40h7.6v6.6c1.1-2.2,2.7-4,4.9-5.2c2.2-1.3,4.6-1.9,7.1-1.9c5.7,0,9.6,2.4,11.6,7.1
		c3.6-4.7,8-7.1,13.4-7.1c4.1,0,7.4,1.2,9.9,3.7c2.5,2.5,3.8,6.1,3.8,10.8v22.1h-7.6V56.3c0-6.6-2.8-10-8.3-10
		c-2.6,0-4.8,0.8-6.7,2.5c-1.9,1.7-2.9,4.1-3,7.2v20.1h-7.6V56.3c0-3.4-0.6-6-1.8-7.6c-1.2-1.6-3.1-2.4-5.8-2.4
		c-2.6,0-4.9,0.9-6.9,2.6C139.1,50.7,138.1,53.2,138.1,56.6z"/>
	<path d="M199.7,32.9c-0.9-0.9-1.4-2.1-1.4-3.4c0-1.3,0.5-2.4,1.4-3.4c0.9-0.9,2.1-1.4,3.4-1.4c1.3,0,2.4,0.5,3.4,1.4
		c0.9,0.9,1.4,2.1,1.4,3.4c0,1.3-0.5,2.4-1.4,3.4c-0.9,0.9-2.1,1.4-3.4,1.4C201.8,34.3,200.7,33.8,199.7,32.9z M206.9,76.1h-7.6V40
		h7.6V76.1z"/>
	<path d="M225.4,76.1h-7.6V25.8h7.6V76.1z"/>
	<path d="M244,76.1h-7.6V25.8h7.6V76.1z"/>
	<path d="M255.5,32.9c-1-0.9-1.4-2.1-1.4-3.4c0-1.3,0.5-2.4,1.4-3.4c0.9-0.9,2.1-1.4,3.4-1.4c1.3,0,2.4,0.5,3.4,1.4
		c0.9,0.9,1.4,2.1,1.4,3.4c0,1.3-0.5,2.4-1.4,3.4c-1,0.9-2.1,1.4-3.4,1.4C257.6,34.3,256.4,33.8,255.5,32.9z M262.6,76.1H255V40h7.6
		V76.1z"/>
	<path d="M289.6,76.7c-5,0-9.3-1.7-13-5.1c-3.6-3.4-5.4-7.9-5.4-13.4c0-5.5,1.9-10,5.7-13.5c3.8-3.5,8.4-5.2,13.8-5.2
		s10,1.9,13.8,5.6l-4.5,5.5c-3.1-2.7-6.3-4.1-9.4-4.1c-3.2,0-5.9,1.1-8.2,3.2c-2.3,2.1-3.5,4.8-3.5,8.1c0,3.3,1.2,6.1,3.5,8.4
		c2.3,2.3,5.1,3.5,8.5,3.5c3.4,0,6.5-1.5,9.5-4.6l4.5,4.9C300.4,74.5,295.3,76.7,289.6,76.7z"/>
	<path d="M341.6,76.1h-6.9v-4.8c-3,3.6-7,5.4-12,5.4c-3.8,0-6.9-1.1-9.3-3.2c-2.5-2.1-3.7-5-3.7-8.5c0-3.5,1.3-6.2,3.9-8
		c2.6-1.8,6.2-2.6,10.6-2.6h9.8V53c0-4.8-2.7-7.2-8-7.2c-3.3,0-6.8,1.2-10.4,3.7l-3.4-4.7c4.4-3.5,9.4-5.2,14.9-5.2
		c4.2,0,7.7,1.1,10.4,3.2c2.7,2.1,4,5.5,4,10.1V76.1z M334,62.7v-3.1h-8.5c-5.5,0-8.2,1.7-8.2,5.2c0,1.8,0.7,3.1,2,4
		c1.4,0.9,3.2,1.4,5.7,1.4s4.5-0.7,6.3-2C333.1,66.8,334,65,334,62.7z"/>
	<path d="M377.9,65.3c0,3.4-1.2,6.2-3.7,8.2c-2.5,2.1-5.7,3.1-9.6,3.1c-2.6,0-5.3-0.5-8.2-1.4c-2.8-0.9-5.3-2.3-7.5-4l3.7-5.9
		c4.2,3.2,8.3,4.7,12.2,4.7c1.7,0,3.1-0.4,4.1-1.2c1-0.8,1.5-1.8,1.5-3c0-1.8-2.4-3.4-7.2-4.9c-0.4-0.1-0.6-0.2-0.8-0.3
		c-7.5-2-11.3-5.4-11.3-10.2c0-3.3,1.3-6,3.9-8c2.6-2,6-3,10.1-3s8.1,1.2,11.8,3.7l-2.8,5.6c-2.9-1.9-6.1-2.9-9.6-2.9
		c-1.8,0-3.3,0.3-4.4,1c-1.1,0.7-1.7,1.6-1.7,3c0,1.2,0.6,2,1.8,2.6c0.8,0.4,2,0.8,3.4,1.2c1.5,0.4,2.8,0.7,3.9,1.1
		c1.1,0.4,2.2,0.8,3.3,1.2c1.1,0.5,2.2,1.1,3.4,1.9C376.7,59.4,377.9,61.9,377.9,65.3z"/>
	<path d="M395.9,46.2v18.3c0,1.7,0.5,3.1,1.4,4.1c0.9,1,2.2,1.5,3.8,1.5s3.2-0.8,4.7-2.4l3.1,5.4c-2.7,2.4-5.6,3.6-8.9,3.6
		c-3.2,0-6-1.1-8.3-3.4s-3.4-5.3-3.4-9.1V46.2h-4.5V40h4.5V28.7h7.6V40h9.5v6.1H395.9z"/>
</g>
</svg>
